<svg xmlns="http://www.w3.org/2000/svg" xmlns:xlink="http://www.w3.org/1999/xlink" width="500" zoomAndPan="magnify" viewBox="0 0 375 374.999991" height="500" preserveAspectRatio="xMidYMid meet" version="1.0"><defs><clipPath id="14bb52e3a8"><path d="M 15.382812 15.382812 L 359.617188 15.382812 L 359.617188 359.617188 L 15.382812 359.617188 Z M 15.382812 15.382812 " clip-rule="nonzero"/></clipPath><clipPath id="20269aabd1"><path d="M 187.5 15.382812 C 92.441406 15.382812 15.382812 92.441406 15.382812 187.5 C 15.382812 282.558594 92.441406 359.617188 187.5 359.617188 C 282.558594 359.617188 359.617188 282.558594 359.617188 187.5 C 359.617188 92.441406 282.558594 15.382812 187.5 15.382812 Z M 187.5 15.382812 " clip-rule="nonzero"/></clipPath><clipPath id="c21b20de84"><path d="M 0.382812 0.382812 L 344.617188 0.382812 L 344.617188 344.617188 L 0.382812 344.617188 Z M 0.382812 0.382812 " clip-rule="nonzero"/></clipPath><clipPath id="e83603bbef"><path d="M 172.5 0.382812 C 77.441406 0.382812 0.382812 77.441406 0.382812 172.5 C 0.382812 267.558594 77.441406 344.617188 172.5 344.617188 C 267.558594 344.617188 344.617188 267.558594 344.617188 172.5 C 344.617188 77.441406 267.558594 0.382812 172.5 0.382812 Z M 172.5 0.382812 " clip-rule="nonzero"/></clipPath><clipPath id="50c5398754"><rect x="0" width="345" y="0" height="345"/></clipPath></defs><rect x="-37.5" width="450" fill="#ffffff" y="-37.499999" height="449.999989" fill-opacity="1"/><rect x="-37.5" width="450" fill="#ffffff" y="-37.499999" height="449.999989" fill-opacity="1"/><g clip-path="url(#14bb52e3a8)"><g clip-path="url(#20269aabd1)"><g transform="matrix(1, 0, 0, 1, 15, 15)"><g clip-path="url(#50c5398754)"><g clip-path="url(#c21b20de84)"><g clip-path="url(#e83603bbef)"><path fill="#ffadc6" d="M 0.382812 0.382812 L 344.617188 0.382812 L 344.617188 344.617188 L 0.382812 344.617188 Z M 0.382812 0.382812 " fill-opacity="1" fill-rule="nonzero"/></g></g></g></g></g></g></svg>